<?xml version="1.0" encoding="utf-8"?>
<!-- Generator: Adobe Illustrator 25.4.1, SVG Export Plug-In . SVG Version: 6.00 Build 0)  -->
<svg version="1.1" id="Calque_1" xmlns="http://www.w3.org/2000/svg" xmlns:xlink="http://www.w3.org/1999/xlink" x="0px" y="0px"
	 viewBox="0 0 330 50" style="enable-background:new 0 0 330 50;" xml:space="preserve">
<style type="text/css">
	.st0{fill:#999999;}
</style>
<g>
	<path class="st0" d="M38.3,16.9l-17,16.2h17l17-16.2C55.2,16.9,38.3,16.9,38.3,16.9z"/>
	<path class="st0" d="M76.5,0h-17v16.2h17V0z"/>
	<path class="st0" d="M59.6,50h17V17.6l-17,16.2C59.6,33.8,59.6,50,59.6,50z"/>
	<path class="st0" d="M17,33.8H0V50h17V33.8z"/>
	<path class="st0" d="M0,0v32.4l17-16.2V0H0z"/>
	<path class="st0" d="M127.9,19.2v11.9h-2.7V26h-8.1v5h-2.6V19.2h2.6v4.7h8.1v-4.7C125.2,19.2,127.9,19.2,127.9,19.2z"/>
	<path class="st0" d="M141.6,31h-2.6V19.2h2.6V31z"/>
	<path class="st0" d="M165.7,31h-2.3l-8.3-8.8V31h-2.5V19.2h2.7l8,8.4v-8.4h2.5L165.7,31L165.7,31L165.7,31z"/>
	<path class="st0" d="M184.2,21.3V31h-2.7v-9.8h-5.6v-2.1h13.8v2.1H184.2L184.2,21.3z"/>
	<path class="st0" d="M212.4,19.2v2.1h-9.7V24h8.7v2.1h-8.7v3h9.7v2.1h-12.3V19.3L212.4,19.2L212.4,19.2z"/>
	<path class="st0" d="M225.4,31h-2.6V19.2h8c2.9,0,4.8,1.3,4.8,3.8c0,0.8-0.3,1.6-0.8,2.2c-0.5,0.6-1.3,1.1-2.1,1.2l3.2,4.6h-3
		l-3-4.4h-4.5L225.4,31L225.4,31L225.4,31z M230.7,24.6c1.5,0,2.4-0.6,2.4-1.6s-0.9-1.6-2.4-1.6h-5.2v3.4L230.7,24.6L230.7,24.6z"/>
	<path class="st0" d="M246,19.2h2.6V29h8.9v2.1H246L246,19.2L246,19.2L246,19.2z"/>
	<path class="st0" d="M275.9,19.2l6.4,11.9h-2.8l-1.4-2.8h-7.2l-1.5,2.8h-2.8l6.4-11.9H275.9L275.9,19.2z M271.9,26.2h5l-2.5-4.6
		L271.9,26.2L271.9,26.2z"/>
	<path class="st0" d="M305.2,31h-2.3l-8.3-8.8V31h-2.5V19.2h2.7l8,8.4v-8.4h2.5L305.2,31L305.2,31L305.2,31z"/>
	<path class="st0" d="M316.2,19.2h6.5c4.4,0,7.3,2.3,7.3,6s-2.8,6-7.3,6h-6.5V19.2L316.2,19.2z M322.7,29c2.9,0,4.6-1.5,4.6-3.9
		s-1.7-3.9-4.6-3.9h-4V29H322.7z"/>
</g>
</svg>
