<?xml version="1.0" encoding="UTF-8"?>
<svg id="a" xmlns="http://www.w3.org/2000/svg" version="1.1" viewBox="0 0 1296 130">
  <!-- Generator: Adobe Illustrator 29.4.0, SVG Export Plug-In . SVG Version: 2.1.0 Build 152)  -->
  <defs>
    <style>
      .st0 {
        fill: #c8e9ff;
      }
    </style>
  </defs>
  <path class="st0" d="M56.6,100.9c0,3.6-.6,7.1-1.9,10.4-1.4,3.4-3.4,6.3-6,8.8-3,3.1-6.9,5.4-11.4,7.1-4.6,1.5-9.7,2.3-15.3,2.3s-8.7-.7-12.5-2.1c-3.9-1.4-6.9-3.4-9-6-.1-.1-.3-.3-.5-.7,2.8-3.2,7-8,12.7-14.5.1.1.3.3.7.5,1.2.9,2.5,1.6,4,2.1,1.5.6,3.1.9,4.7.9,3.6,0,6.2-1.1,7.7-3.3,1.6-2.2,2.5-4.1,2.5-5.6V26.5c.3-1.3.8-3.1,1.4-5.5l-.3-1.8c-.3-1.2-.7-2.5-1.1-3.9V1.6h24.3v9.3c-.1.5-.4,1.2-.9,2.3l.3.7c.1.5.3.9.5,1.4v85.5h0Z"/>
  <path class="st0" d="M138.9,100.4c0,2.1-.3,4.3-.9,6.7-.6,2.2-1.5,4.5-2.6,6.7-2.3,4.2-5.9,7.9-10.5,11.1-4.8,3.1-11.2,4.6-19.2,4.6s-10.7-.8-15.1-2.3c-4.6-1.6-8.3-4.1-11.2-7.2-2.6-2.5-4.5-5.4-5.8-8.8s-1.9-7-1.9-10.8V28.8c0-6.6,2.5-13,7.6-19.2,5.2-6.3,14-9.5,26.5-9.5s19,3,24.6,9c5.6,6,8.5,12.6,8.6,19.8v71.6h0ZM114.5,110.4V28.9c0-1.6-.7-3.6-2.1-6-1.5-2.2-3.7-3.3-6.7-3.3s-2.6,0-6.3.2l-5.6.2c.8.8,2,2.1,3.5,3.9l-2.1,5.3.2.5c.1.3.3.8.5,1.2v69.1c0,1.5.7,3.5,2.1,6s4,3.7,7.7,3.7,2.8-.4,3.9-1.2c1.2-.7,2.1-1.6,2.8-2.8l2.1,4.8h0Z"/>
  <path class="st0" d="M153.3,128.1c.1-1.9.2-4.6.3-8.3V21.5v.2c-.1-4.5-.4-11.2-.9-20.3h25.8c-.2,3.4-.5,8.5-.9,15.2v64.2c-.3,1.4-.9,3.6-1.6,6.7l.5,2.1,1.1,4.2c.1,7.6.2,19,.2,34.2h-24.6Z"/>
  <path class="st0" d="M266.9,128.2h-25.7c-5-14.9-12.7-37.3-23-67v66.8h-24.8v-25.2c.5-1.3,1.2-3.2,2.3-5.6l-.7-1.9c-.5-1.3-1-2.5-1.6-3.5V12c-.5-2.2-1.2-5.6-2.1-10.2h28.8c5.9,17.9,14.5,44.7,26,80.6v-19.6c-1.1-.9-2.6-2.4-4.6-4.4V1.8h25.3v126.5h0Z"/>
  <path class="st0" d="M350.3,1.6h19.5c-.6,8.8-1.1,15.4-1.4,19.8h-22.7v106.7h-24.3V25.8c3-2,5.3-3.5,6.9-4.4h-27.8c-.5-8.8-.8-15.4-1.1-19.8h42.9c1.4,1.4,2.5,2.5,3.2,3.3,2.1-1.5,3.7-2.6,4.7-3.3h0Z"/>
  <path class="st0" d="M452.1,111.5c.3,7.4.6,12.9.7,16.6h-25v-58.6h-25.5c1.9,1.8,3.3,3.1,4.2,4.1v54.5h-24.3v-59.3c-.8.1-1.5.2-1.9.2-.3-8.1-.6-14.2-.9-18.3h2.8v-28.9c-.3-8.9-.6-15.6-.9-20.1h25.1v48.3h21.3V1.6h24.3v109.9Z"/>
  <path class="st0" d="M526.5,128.1h-58.9c.2-4.5.5-11.2.9-20.1V19.6h-1.8c0-4,0-10,.2-18,5.5.1,13.8.2,24.8.2.6.2,1.3.6,2.3,1.1l.7-.3c.5-.1,1.1-.3,1.8-.7h29.9c-.3,4.5-.8,11.1-1.2,19.9h-32.5v28.4h25c-.3,4.3-.8,10.9-1.4,19.8h-23.6v35.8c-.7,1.1-1.8,2.6-3.3,4.6,1.2-.5,3-1.2,5.6-2.1h32.9c-.2,4.5-.6,11.1-1.2,19.9h0Z"/>
  <path class="st0" d="M628.8,39c-5.5.2-13.7.6-24.4,1.1v-10.8c0-1.5-.8-3.4-2.5-5.6-1.5-2.3-3.7-3.5-6.7-3.5s-6.1,1.2-7.7,3.5c-1.5,2.2-2.3,4.1-2.3,5.6v84.8c.8-1.3,2.1-3.2,3.9-5.8.7.6,1.6,1.1,2.6,1.4,1.1.2,2.2.3,3.3.3,2.9,0,5.2-1.1,6.7-3.3,1.6-2.2,2.5-4.1,2.5-5.6v-10.8c5.4.2,13.5.6,24.4,1.1v9.7c0,3.5-.7,7-2.1,10.4s-3.4,6.4-6,9c-2.2,2.1-5.4,4.2-9.5,6.3-4.1,2.1-9.4,3.2-16,3.2s-10.5-.8-15.1-2.5-8.4-4-11.4-7.1c-2.6-2.6-4.5-5.6-5.8-9-1.4-3.3-2.1-6.8-2.1-10.4V29.3c0-3.6.7-7.2,2.1-10.6,1.3-3.3,3.2-6.2,5.8-8.8,3.2-3.2,7-5.5,11.4-7.1,4.6-1.6,9.7-2.5,15.3-2.5s11.9,1.1,16,3.2c4,2.1,7.1,4.2,9.3,6.3,2.6,2.6,4.6,5.6,6,9s2.2,6.9,2.3,10.4v9.7h0Z"/>
  <path class="st0" d="M709.9,100.4c0,2.1-.3,4.3-.9,6.7-.6,2.2-1.5,4.5-2.6,6.7-2.3,4.2-5.9,7.9-10.5,11.1-4.8,3.1-11.2,4.6-19.2,4.6s-10.7-.8-15.1-2.3c-4.6-1.6-8.3-4.1-11.2-7.2-2.6-2.5-4.5-5.4-5.8-8.8s-1.9-7-1.9-10.8V28.8c0-6.6,2.5-13,7.6-19.2,5.2-6.3,14-9.5,26.5-9.5s19,3,24.6,9c5.6,6,8.5,12.6,8.6,19.8v71.6h0ZM685.5,110.4V28.9c0-1.6-.7-3.6-2.1-6-1.5-2.2-3.7-3.3-6.7-3.3s-2.6,0-6.3.2l-5.6.2c.8.8,2,2.1,3.5,3.9l-2.1,5.3.2.5c.1.3.3.8.5,1.2v69.1c0,1.5.7,3.5,2.1,6s4,3.7,7.7,3.7,2.8-.4,3.9-1.2c1.2-.7,2.1-1.6,2.8-2.8l2.1,4.8h0Z"/>
  <path class="st0" d="M818.6,128.1h-25.3v-26.6c.7-1.4,1.6-3.5,2.8-6.3l-1.1-2.3c-.6-1.5-1.2-2.8-1.8-3.9.1-10.2.2-25.5.3-45.9-2.9,18.8-7.4,47.1-13.4,84.8-4,0-10,0-17.9.2-3.6-18.9-9.2-47.4-16.7-85.4v25.4c.8,1.5,2,3.8,3.5,6.9v53.1h-25.3V12.9c-.5-2.5-1.2-6.2-2.3-11.3h35.7c3,15.8,7.7,39.4,13.9,71.1,3.3-15.9,8.1-39.6,14.4-71.1h33.1v126.5h0Z"/>
  <path class="st0" d="M925.8,128.1h-25.3v-26.6c.7-1.4,1.6-3.5,2.8-6.3l-1.1-2.3c-.6-1.5-1.2-2.8-1.8-3.9.1-10.2.2-25.5.3-45.9-2.9,18.8-7.4,47.1-13.4,84.8-4,0-10,0-17.9.2-3.6-18.9-9.2-47.4-16.7-85.4v25.4c.8,1.5,2,3.8,3.5,6.9v53.1h-25.3V12.9c-.5-2.5-1.2-6.2-2.3-11.3h35.7c3,15.8,7.7,39.4,13.9,71.1,3.3-15.9,8.1-39.6,14.4-71.1h33.1v126.5h0Z"/>
  <path class="st0" d="M1008.1,100.9c0,3.4-.7,6.8-2.1,10.2s-3.4,6.4-6,9c-2,2.2-5,4.3-9.1,6.3-4,2-9.3,3-15.8,3-11.8,0-20.6-3-26.2-9-5.5-6-8.3-12.5-8.3-19.6V21.5c-.1-4.5-.4-11.2-.9-20.1h25.1v92.6c-.6,1.1-1.4,2.7-2.5,4.9l1.1,2.5c.6,1.6,1.2,3,1.8,4.1v6.7c.7-1.1,1.8-2.7,3.2-4.9.7.7,1.6,1.2,2.6,1.6,1.2.5,2.5.7,3.9.7,2.9,0,5.1-1.1,6.5-3.3,1.5-2.2,2.3-4.2,2.3-5.8V18.5c1.1-.8,2.7-1.9,4.9-3.3h-4.9V1.4h24.4v99.5h0Z"/>
  <path class="st0" d="M1094.5,128.2h-25.7c-5-14.9-12.7-37.3-23-67v66.8h-24.8v-25.2c.5-1.3,1.2-3.2,2.3-5.6l-.7-1.9c-.5-1.3-1-2.5-1.6-3.5V12c-.5-2.2-1.2-5.6-2.1-10.2h28.8c5.9,17.9,14.5,44.7,26,80.6v-19.6c-1.1-.9-2.6-2.4-4.6-4.4V1.8h25.3v126.5h0Z"/>
  <path class="st0" d="M1109.8,128.1c.1-1.9.2-4.6.3-8.3V21.5v.2c-.1-4.5-.4-11.2-.9-20.3h25.8c-.2,3.4-.5,8.5-.9,15.2v64.2c-.3,1.4-.9,3.6-1.6,6.7l.5,2.1,1.1,4.2c.1,7.6.2,19,.2,34.2h-24.6Z"/>
  <path class="st0" d="M1197.2,1.6h19.5c-.6,8.8-1.1,15.4-1.4,19.8h-22.7v106.7h-24.3V25.8c3-2,5.3-3.5,6.9-4.4h-27.8c-.5-8.8-.8-15.4-1.1-19.8h42.9c1.4,1.4,2.5,2.5,3.2,3.3,2.1-1.5,3.7-2.6,4.7-3.3h0Z"/>
  <path class="st0" d="M1269.6,78.7v39.2c.6,4.6,1,8,1.2,10.2h-25.7l1.1-12.2v-37.2c-11.6-34.2-20.3-59.9-26.2-77.1h23.9c5.9,23.2,10.3,40.5,13.2,52-1.1,2.6-1.8,4.5-2.3,5.8.9,1.5,1.7,2.6,2.3,3.3,6.6-27.2,11.5-47.6,14.9-61.2h23.9c-11.7,34.3-20.5,60-26.4,77.1h0Z"/>
</svg>